<?xml version="1.0" encoding="UTF-8" standalone="no"?>
<!-- Created with Inkscape (http://www.inkscape.org/) -->

<svg
   xmlns:dc="http://purl.org/dc/elements/1.1/"
   xmlns:cc="http://creativecommons.org/ns#"
   xmlns:rdf="http://www.w3.org/1999/02/22-rdf-syntax-ns#"
   xmlns:svg="http://www.w3.org/2000/svg"
   xmlns="http://www.w3.org/2000/svg"
   xmlns:sodipodi="http://sodipodi.sourceforge.net/DTD/sodipodi-0.dtd"
   xmlns:inkscape="http://www.inkscape.org/namespaces/inkscape"
   id="svg2"
   version="1.1"
   inkscape:version="0.48.4 r9939"
   width="2030"
   height="1163.75"
   xml:space="preserve"
   sodipodi:docname="phylosift-aa-raxmlbootstrap.pdf"><metadata
     id="metadata8"><rdf:RDF><cc:Work
         rdf:about=""><dc:format>image/svg+xml</dc:format><dc:type
           rdf:resource="http://purl.org/dc/dcmitype/StillImage" /><dc:title></dc:title></cc:Work></rdf:RDF></metadata><defs
     id="defs6"><clipPath
       clipPathUnits="userSpaceOnUse"
       id="clipPath20"><path
         d="m 0,0 1624,0 0,931 L 0,931 0,0 z"
         id="path22" /></clipPath><clipPath
       clipPathUnits="userSpaceOnUse"
       id="clipPath28"><path
         d="M 0,931 0,0 1624,0 1624,931 0,931 z"
         id="path30" /></clipPath></defs><sodipodi:namedview
     pagecolor="#ffffff"
     bordercolor="#666666"
     borderopacity="1"
     objecttolerance="10"
     gridtolerance="10"
     guidetolerance="10"
     inkscape:pageopacity="0"
     inkscape:pageshadow="2"
     inkscape:window-width="1855"
     inkscape:window-height="1056"
     id="namedview4"
     showgrid="false"
     inkscape:zoom="0.57358436"
     inkscape:cx="1015"
     inkscape:cy="581.875"
     inkscape:window-x="65"
     inkscape:window-y="24"
     inkscape:window-maximized="1"
     inkscape:current-layer="g10" /><g
     id="g10"
     inkscape:groupmode="layer"
     inkscape:label="phylosift-aa-raxmlbootstrap"
     transform="matrix(1.25,0,0,-1.25,0,1163.75)"><g
       id="g12" /><g
       id="g14"><g
         id="g16"><g
           id="g18"
           clip-path="url(#clipPath20)"><g
             id="g24"><g
               id="g26"
               clip-path="url(#clipPath28)"><g
                 id="g32"><path
                   d="M 0,931 1624,931 1624,0 0,0 0,931 z"
                   style="fill:#ffffff;fill-opacity:1;fill-rule:nonzero;stroke:none"
                   id="path34" /><path
                   d="m 955.11,632.42 -0.04,0 0,-33.38"
                   style="fill:none;stroke:#000000;stroke-opacity:1;stroke-width:6;stroke-linecap:butt;stroke-linejoin:miter;stroke-miterlimit:10;stroke-dasharray:none"
                   id="path36" /><path
                   d="m 933.81,373.69 -469.96,0 0,162.75"
                   style="fill:none;stroke:#000000;stroke-opacity:1;stroke-width:6;stroke-linecap:butt;stroke-linejoin:miter;stroke-miterlimit:10;stroke-dasharray:none"
                   id="path38" /><path
                   d="m 976.09,832.73 -5.01,0 0,33.39"
                   style="fill:none;stroke:#000000;stroke-opacity:1;stroke-width:6;stroke-linecap:butt;stroke-linejoin:miter;stroke-miterlimit:10;stroke-dasharray:none"
                   id="path40" /><path
                   d="m 939.02,465.5 -0.04,0 0,66.77"
                   style="fill:none;stroke:#000000;stroke-opacity:1;stroke-width:6;stroke-linecap:butt;stroke-linejoin:miter;stroke-miterlimit:10;stroke-dasharray:none"
                   id="path42" /><path
                   d="m 993,899.5 -21.92,0 0,-33.38"
                   style="fill:none;stroke:#000000;stroke-opacity:1;stroke-width:6;stroke-linecap:butt;stroke-linejoin:miter;stroke-miterlimit:10;stroke-dasharray:none"
                   id="path44" /><path
                   d="m 725.47,31.5 -10.13,0 0,33.38"
                   style="fill:none;stroke:#000000;stroke-opacity:1;stroke-width:6;stroke-linecap:butt;stroke-linejoin:miter;stroke-miterlimit:10;stroke-dasharray:none"
                   id="path46" /><path
                   d="m 955.07,599.04 -16.09,0 0,-66.77"
                   style="fill:none;stroke:#000000;stroke-opacity:1;stroke-width:6;stroke-linecap:butt;stroke-linejoin:miter;stroke-miterlimit:10;stroke-dasharray:none"
                   id="path48" /><path
                   d="m 6,585.48 9.77,0"
                   style="fill:none;stroke:#000000;stroke-opacity:1;stroke-width:6;stroke-linecap:butt;stroke-linejoin:miter;stroke-miterlimit:10;stroke-dasharray:none"
                   id="path50" /><path
                   d="m 730.88,165.04 -26.26,0 0,-50.08"
                   style="fill:none;stroke:#000000;stroke-opacity:1;stroke-width:6;stroke-linecap:butt;stroke-linejoin:miter;stroke-miterlimit:10;stroke-dasharray:none"
                   id="path52" /><path
                   d="m 693.82,173.38 -365.88,0 0,181.53"
                   style="fill:none;stroke:#000000;stroke-opacity:1;stroke-width:6;stroke-linecap:butt;stroke-linejoin:miter;stroke-miterlimit:10;stroke-dasharray:none"
                   id="path54" /><path
                   d="m 715.34,64.88 -10.72,0 0,50.08"
                   style="fill:none;stroke:#000000;stroke-opacity:1;stroke-width:6;stroke-linecap:butt;stroke-linejoin:miter;stroke-miterlimit:10;stroke-dasharray:none"
                   id="path56" /><path
                   d="m 971.08,866.12 -822.96,0 0,-50.08"
                   style="fill:none;stroke:#000000;stroke-opacity:1;stroke-width:6;stroke-linecap:butt;stroke-linejoin:miter;stroke-miterlimit:10;stroke-dasharray:none"
                   id="path58" /><path
                   d="m 874.92,699.19 -411.07,0 0,-162.75"
                   style="fill:none;stroke:#000000;stroke-opacity:1;stroke-width:6;stroke-linecap:butt;stroke-linejoin:miter;stroke-miterlimit:10;stroke-dasharray:none"
                   id="path60" /><path
                   d="m 721.29,98.27 -5.95,0 0,-33.39"
                   style="fill:none;stroke:#000000;stroke-opacity:1;stroke-width:6;stroke-linecap:butt;stroke-linejoin:miter;stroke-miterlimit:10;stroke-dasharray:none"
                   id="path62" /><path
                   d="m 938.95,448.81 -5.14,0 0,-75.12"
                   style="fill:none;stroke:#000000;stroke-opacity:1;stroke-width:6;stroke-linecap:butt;stroke-linejoin:miter;stroke-miterlimit:10;stroke-dasharray:none"
                   id="path64" /><path
                   d="m 939.06,498.88 -0.04,0 0,-33.38"
                   style="fill:none;stroke:#000000;stroke-opacity:1;stroke-width:6;stroke-linecap:butt;stroke-linejoin:miter;stroke-miterlimit:10;stroke-dasharray:none"
                   id="path66" /><path
                   d="m 944.3,365.35 -5.35,0 0,83.46"
                   style="fill:none;stroke:#000000;stroke-opacity:1;stroke-width:6;stroke-linecap:butt;stroke-linejoin:miter;stroke-miterlimit:10;stroke-dasharray:none"
                   id="path68" /><path
                   d="m 939.06,432.12 -0.04,0 0,33.38"
                   style="fill:none;stroke:#000000;stroke-opacity:1;stroke-width:6;stroke-linecap:butt;stroke-linejoin:miter;stroke-miterlimit:10;stroke-dasharray:none"
                   id="path70" /><path
                   d="m 955.11,565.65 -0.04,0 0,33.39"
                   style="fill:none;stroke:#000000;stroke-opacity:1;stroke-width:6;stroke-linecap:butt;stroke-linejoin:miter;stroke-miterlimit:10;stroke-dasharray:none"
                   id="path72" /><path
                   d="m 938.98,532.27 -0.03,0 0,-83.46"
                   style="fill:none;stroke:#000000;stroke-opacity:1;stroke-width:6;stroke-linecap:butt;stroke-linejoin:miter;stroke-miterlimit:10;stroke-dasharray:none"
                   id="path74" /><path
                   d="m 799.1,765.96 -650.98,0 0,50.08"
                   style="fill:none;stroke:#000000;stroke-opacity:1;stroke-width:6;stroke-linecap:butt;stroke-linejoin:miter;stroke-miterlimit:10;stroke-dasharray:none"
                   id="path76" /><path
                   d="m 743.02,231.81 -49.2,0 0,-58.43"
                   style="fill:none;stroke:#000000;stroke-opacity:1;stroke-width:6;stroke-linecap:butt;stroke-linejoin:miter;stroke-miterlimit:10;stroke-dasharray:none"
                   id="path78" /><path
                   d="m 148.12,816.04 -132.35,0 0,-230.56"
                   style="fill:none;stroke:#000000;stroke-opacity:1;stroke-width:6;stroke-linecap:butt;stroke-linejoin:miter;stroke-miterlimit:10;stroke-dasharray:none"
                   id="path80" /><path
                   d="m 327.94,354.91 -312.17,0 0,230.57"
                   style="fill:none;stroke:#000000;stroke-opacity:1;stroke-width:6;stroke-linecap:butt;stroke-linejoin:miter;stroke-miterlimit:10;stroke-dasharray:none"
                   id="path82" /><path
                   d="m 463.85,536.44 -135.91,0 0,-181.53"
                   style="fill:none;stroke:#000000;stroke-opacity:1;stroke-width:6;stroke-linecap:butt;stroke-linejoin:miter;stroke-miterlimit:10;stroke-dasharray:none"
                   id="path84" /><path
                   d="m 993,298.58 -59.19,0 0,75.11"
                   style="fill:none;stroke:#000000;stroke-opacity:1;stroke-width:6;stroke-linecap:butt;stroke-linejoin:miter;stroke-miterlimit:10;stroke-dasharray:none"
                   id="path86" /><path
                   d="m 704.62,114.96 -10.8,0 0,58.42"
                   style="fill:none;stroke:#000000;stroke-opacity:1;stroke-width:6;stroke-linecap:butt;stroke-linejoin:miter;stroke-miterlimit:10;stroke-dasharray:none"
                   id="path88" /><text
                   transform="matrix(1,0,0,-1,960.11,618.92)"
                   id="text90"><tspan
                     style="fill:#000000;fill-opacity:1;fill-rule:nonzero;stroke:none;font-family:Helvetica;font-variant:normal;font-weight:normal;font-size:40;writing-mode:lr;-inkscape-font-specification:Helvetica"
                     x="0 27.19905 49.9581 59.35715 93.1962 115.95525 138.7143 161.47335 170.8724 180.27145 203.0305 214.66955 239.6286 260.14765 282.9067 305.66575 315.0648 348.90385 371.6629 385.50195 394.901 417.66005 451.4991 463.13815 490.3372 513.09625 535.8553 558.61435 581.3734"
                     y="0"
                     sodipodi:role="line"
                     id="tspan92">Salmonella Typhimurium SL1344</tspan></text>
<text
                   transform="matrix(1,0,0,-1,944.06,485.38)"
                   id="text94"><tspan
                     style="fill:#000000;fill-opacity:1;fill-rule:nonzero;stroke:none;font-family:Helvetica;font-variant:normal;font-weight:normal;font-size:40;writing-mode:lr;-inkscape-font-specification:Helvetica"
                     x="0 27.53748 50.63496 60.37244 94.54992 117.6474 140.74488 163.84236 173.57984 183.31732 206.4148 218.39228 243.68976 264.54724 287.64472 310.7422 320.47968 354.65716 377.75464 391.93212 401.6696 424.76708 458.94456 470.92204 498.45952 521.557 544.65448"
                     y="0"
                     sodipodi:role="line"
                     id="tspan96">Salmonella Typhimurium A130</tspan></text>
<text
                   transform="matrix(1,0,0,-1,949.3,351.85)"
                   id="text98"><tspan
                     style="fill:#000000;fill-opacity:1;fill-rule:nonzero;stroke:none;font-family:Helvetica;font-variant:normal;font-weight:normal;font-size:40;writing-mode:lr;-inkscape-font-specification:Helvetica"
                     x="0 27.07671 49.71342 58.99013 92.70684 115.34355 137.98026 160.61697 169.89368 179.17039 201.8071 213.32381 240.40052 263.03723 274.55394 297.19065 310.90736 320.18407 331.70078 340.97749 363.6142 372.89091 393.28762 404.80433 431.88104 454.51775 477.15446 499.79117 522.42788 545.06459"
                     y="0"
                     sodipodi:role="line"
                     id="tspan100">Salmonella Enteritidis P125109</tspan></text>
<text
                   transform="matrix(1,0,0,-1,944.06,418.62)"
                   id="text102"><tspan
                     style="fill:#000000;fill-opacity:1;fill-rule:nonzero;stroke:none;font-family:Helvetica;font-variant:normal;font-weight:normal;font-size:40;writing-mode:lr;-inkscape-font-specification:Helvetica"
                     x="0 27.38345 50.3269 59.91035 93.9338 116.87725 139.8207 162.76415 172.3476 181.93105 204.8745 216.69795 241.8414 262.54485 285.4883 308.43175 318.0152 352.03865 374.9821 389.00555 398.589 421.53245 455.5559 467.37935 496.9628 519.90625 542.8497 565.79315 588.7366"
                     y="0"
                     sodipodi:role="line"
                     id="tspan104">Salmonella Typhimurium D23580</tspan></text>
<text
                   transform="matrix(1,0,0,-1,981.09,819.23)"
                   id="text106"><tspan
                     style="fill:#000000;fill-opacity:1;fill-rule:nonzero;stroke:none;font-family:Helvetica;font-variant:normal;font-weight:normal;font-size:40;writing-mode:lr;-inkscape-font-specification:Helvetica"
                     x="0 26.86948 35.93896 58.36844 80.79792 100.9874 110.05688 132.48636 141.55584 150.62532 173.0548 184.36428 206.79376 229.22324 251.65272 274.0822 307.59168 330.02116 352.45064 361.52012 383.9496 406.37908 417.68856 446.75804 475.82752 498.257 520.68648 543.11596 565.54544 587.97492"
                     y="0"
                     sodipodi:role="line"
                     id="tspan108">Klebsiella pneumoniae RH201207</tspan></text>
<text
                   transform="matrix(1,0,0,-1,960.11,552.15)"
                   id="text110"><tspan
                     style="fill:#000000;fill-opacity:1;fill-rule:nonzero;stroke:none;font-family:Helvetica;font-variant:normal;font-weight:normal;font-size:40;writing-mode:lr;-inkscape-font-specification:Helvetica"
                     x="0 27.19905 49.9581 59.35715 93.1962 115.95525 138.7143 161.47335 170.8724 180.27145 203.0305 214.66955 239.6286 260.14765 282.9067 305.66575 315.0648 348.90385 371.6629 385.50195 394.901 417.66005 451.4991 463.13815 490.3372 513.09625 535.8553 558.61435 581.3734"
                     y="0"
                     sodipodi:role="line"
                     id="tspan112">Salmonella Typhimurium SL3261</tspan></text>
<text
                   transform="matrix(1,0,0,-1,998,886)"
                   id="text114"><tspan
                     style="fill:#000000;fill-opacity:1;fill-rule:nonzero;stroke:none;font-family:Helvetica;font-variant:normal;font-weight:normal;font-size:40;writing-mode:lr;-inkscape-font-specification:Helvetica"
                     x="0 27.04126 36.28252 58.88378 81.48504 101.8463 111.08756 133.68882 142.93008 152.17134 174.7726 186.25386 208.85512 231.45638 254.05764 276.6589 310.34016 332.94142 355.54268 364.78394 387.3852 409.98646 421.46772 448.50898 468.87024 478.1115"
                     y="0"
                     sodipodi:role="line"
                     id="tspan116">Klebsiella pneumoniae Ecl8</tspan></text>
<text
                   transform="matrix(1,0,0,-1,730.47,18)"
                   id="text118"><tspan
                     style="fill:#000000;fill-opacity:1;fill-rule:nonzero;stroke:none;font-family:Helvetica;font-variant:normal;font-weight:normal;font-size:40;writing-mode:lr;-inkscape-font-specification:Helvetica"
                     x="0 27.25107 47.82214 68.39321 91.20428 114.01535 127.90642 137.35749 157.92856 180.73963 190.1907 213.00177 224.69284 245.26391 268.07498 277.52605 286.97712 298.66819 325.91926 339.81033 362.6214 385.43247 397.12354 431.01461 462.70568 485.51675 508.32782 531.13889"
                     y="0"
                     sodipodi:role="line"
                     id="tspan120">Escherichia coli K-12 MG1655</tspan></text>
<text
                   transform="matrix(1,0,0,-1,804.1,752.46)"
                   id="text122"><tspan
                     style="fill:#000000;fill-opacity:1;fill-rule:nonzero;stroke:none;font-family:Helvetica;font-variant:normal;font-weight:normal;font-size:40;writing-mode:lr;-inkscape-font-specification:Helvetica"
                     x="0 26.71483 48.98966 60.14449 82.41932 95.77415 118.04898 140.32381 162.59864 182.63347 193.7883 216.06313 229.41796 240.57279 260.60762 269.52245 291.79728 314.07211 334.10694 356.38177 378.6566 389.81143 418.72626 447.64109 472.11592 501.03075 512.18558 534.46041 556.73524 579.01007"
                     y="0"
                     sodipodi:role="line"
                     id="tspan124">Enterobacter cloacae NCTC 9394</tspan></text>
<text
                   transform="matrix(1,0,0,-1,748.02,218.31)"
                   id="text126"><tspan
                     style="fill:#000000;fill-opacity:1;fill-rule:nonzero;stroke:none;font-family:Helvetica;font-variant:normal;font-weight:normal;font-size:40;writing-mode:lr;-inkscape-font-specification:Helvetica"
                     x="0 26.73119 46.78238 66.83357 89.12476 111.41595 124.78714 133.71833 153.76952 176.06071 184.9919 207.28309 218.45428 238.50547 260.79666 269.72785 278.65904 289.83023 318.76142 345.49261 372.2238 401.15499 412.32618 439.05737 463.54856 485.83975 508.13094"
                     y="0"
                     sodipodi:role="line"
                     id="tspan128">Escherichia coli UPEC ST131</tspan></text>
<text
                   transform="matrix(1,0,0,-1,735.88,151.54)"
                   id="text130"><tspan
                     style="fill:#000000;fill-opacity:1;fill-rule:nonzero;stroke:none;font-family:Helvetica;font-variant:normal;font-weight:normal;font-size:40;writing-mode:lr;-inkscape-font-specification:Helvetica"
                     x="0 26.62909 46.57818 66.52727 88.71636 110.90545 124.17454 133.00363 152.95272 175.14181 183.9709 206.15999 217.22908 237.17817 259.36726 268.19635 277.02544 288.09453 314.72362 339.11271 365.7418 394.57089 405.63998 434.46907 461.09816 483.28725"
                     y="0"
                     sodipodi:role="line"
                     id="tspan132">Escherichia coli ETEC CS17</tspan></text>
<text
                   transform="matrix(1,0,0,-1,998,285.08)"
                   id="text134"><tspan
                     style="fill:#000000;fill-opacity:1;fill-rule:nonzero;stroke:none;font-family:Helvetica;font-variant:normal;font-weight:normal;font-size:40;writing-mode:lr;-inkscape-font-specification:Helvetica"
                     x="0 27.5245 50.609 60.3335 94.498 117.5825 140.667 163.7515 173.476 183.2005 206.285 218.2495 243.534 264.3785 287.463 310.5475 320.272 332.2365 357.521 378.3655"
                     y="0"
                     sodipodi:role="line"
                     id="tspan136">Salmonella Typhi Ty2</tspan></text>
<text
                   transform="matrix(1,0,0,-1,879.92,685.69)"
                   id="text138"><tspan
                     style="fill:#000000;fill-opacity:1;fill-rule:nonzero;stroke:none;font-family:Helvetica;font-variant:normal;font-weight:normal;font-size:40;writing-mode:lr;-inkscape-font-specification:Helvetica"
                     x="0 29.46772 38.93544 50.64316 64.55088 87.3786 110.20632 133.03404 153.62176 165.32948 188.1572 202.06492 213.77264 227.68036 250.50808 273.3358 296.16352 318.99124 330.69896 340.16668 362.9944 396.90212 408.60984 420.31756 449.78528 479.253 502.08072 524.90844"
                     y="0"
                     sodipodi:role="line"
                     id="tspan140">Citrobacter rodentium ICC168</tspan></text>
<text
                   transform="matrix(1,0,0,-1,726.29,84.77)"
                   id="text142"><tspan
                     style="fill:#000000;fill-opacity:1;fill-rule:nonzero;stroke:none;font-family:Helvetica;font-variant:normal;font-weight:normal;font-size:40;writing-mode:lr;-inkscape-font-specification:Helvetica"
                     x="0 26.95039 47.22078 67.49117 90.00156 112.51195 126.10234 135.25273 155.52312 178.03351 187.1839 209.69429 221.08468 241.35507 263.86546 273.01585 282.16624 293.55663 320.50702 345.21741 372.1678 401.31819 412.70858 441.85897 464.36936 486.87975 509.39014 531.90053"
                     y="0"
                     sodipodi:role="line"
                     id="tspan144">Escherichia coli ETEC H10407</tspan></text>
</g></g></g></g></g></g></g></svg>